HIERARCHY
ROOT mixamorig:Hips
{
	OFFSET 0.000000 201.639420 0.000000
	CHANNELS 6 Xposition Yposition Zposition Xrotation Yrotation Zrotation
	JOINT mixamorig:Spine
	{
		OFFSET 0.006200 19.524994 -2.481800
		CHANNELS 3 Xrotation Yrotation Zrotation
		JOINT mixamorig:Spine1
		{
			OFFSET -0.000900 22.835007 -2.825400
			CHANNELS 3 Xrotation Yrotation Zrotation
			JOINT mixamorig:Spine2
			{
				OFFSET -0.020600 26.552490 -3.193300
				CHANNELS 3 Xrotation Yrotation Zrotation
				JOINT mixamorig:Neck
				{
					OFFSET -0.060000 30.701813 1.352200
					CHANNELS 3 Xrotation Yrotation Zrotation
					JOINT mixamorig:Head
					{
						OFFSET -0.087200 22.547607 3.670900
						CHANNELS 3 Xrotation Yrotation Zrotation
						JOINT mixamorig:HeadTop_End
						{
							OFFSET -0.830600 40.355194 7.893500
							CHANNELS 3 Xrotation Yrotation Zrotation
							End Site
							{
								OFFSET 0.000000 30.592346 0.000000
							}
						}
						JOINT mixamorig:RightEye
						{
							OFFSET -6.302100 18.118591 16.197100
							CHANNELS 3 Xrotation Yrotation Zrotation
							End Site
							{
								OFFSET 0.000000 30.592346 0.000000
							}
						}
						JOINT mixamorig:LeftEye
						{
							OFFSET 6.741500 18.382690 16.401899
							CHANNELS 3 Xrotation Yrotation Zrotation
							End Site
							{
								OFFSET 0.000000 30.592346 0.000000
							}
						}
					}
				}
				JOINT mixamorig:LeftShoulder
				{
					OFFSET 11.924900 18.230499 1.425400
					CHANNELS 3 Xrotation Yrotation Zrotation
					JOINT mixamorig:LeftArm
					{
						OFFSET 25.435989 -0.697632 -5.229300
						CHANNELS 3 Xrotation Yrotation Zrotation
						JOINT mixamorig:LeftForeArm
						{
							OFFSET 54.684776 0.000000 0.000000
							CHANNELS 3 Xrotation Yrotation Zrotation
							JOINT mixamorig:LeftHand
							{
								OFFSET 55.098175 0.000000 0.000000
								CHANNELS 3 Xrotation Yrotation Zrotation
								JOINT mixamorig:LeftHandMiddle1
								{
									OFFSET 23.369751 0.000000 0.000000
									CHANNELS 3 Xrotation Yrotation Zrotation
									JOINT mixamorig:LeftHandMiddle2
									{
										OFFSET 6.378677 0.000000 0.000000
										CHANNELS 3 Xrotation Yrotation Zrotation
										JOINT mixamorig:LeftHandMiddle3
										{
											OFFSET 6.148331 0.000000 0.000000
											CHANNELS 3 Xrotation Yrotation Zrotation
											JOINT mixamorig:LeftHandMiddle4
											{
												OFFSET 6.582504 0.000000 0.000000
												CHANNELS 3 Xrotation Yrotation Zrotation
												End Site
												{
													OFFSET -1.168900 6.395691 1.028606
												}
											}
										}
									}
								}
								JOINT mixamorig:LeftHandThumb1
								{
									OFFSET 7.235672 -3.848206 5.434273
									CHANNELS 3 Xrotation Yrotation Zrotation
									JOINT mixamorig:LeftHandThumb2
									{
										OFFSET 6.568451 -3.792297 3.792300
										CHANNELS 3 Xrotation Yrotation Zrotation
										JOINT mixamorig:LeftHandThumb3
										{
											OFFSET 6.063080 -3.500519 3.500518
											CHANNELS 3 Xrotation Yrotation Zrotation
											JOINT mixamorig:LeftHandThumb4
											{
												OFFSET 4.793182 -2.767334 2.767349
												CHANNELS 3 Xrotation Yrotation Zrotation
												End Site
												{
													OFFSET 0.101639 6.054260 1.275483
												}
											}
										}
									}
								}
								JOINT mixamorig:LeftHandIndex1
								{
									OFFSET 23.101074 -0.309540 4.992809
									CHANNELS 3 Xrotation Yrotation Zrotation
									JOINT mixamorig:LeftHandIndex2
									{
										OFFSET 6.226883 0.000000 0.000000
										CHANNELS 3 Xrotation Yrotation Zrotation
										JOINT mixamorig:LeftHandIndex3
										{
											OFFSET 6.094330 0.000000 0.000000
											CHANNELS 3 Xrotation Yrotation Zrotation
											JOINT mixamorig:LeftHandIndex4
											{
												OFFSET 5.482605 0.000000 0.000000
												CHANNELS 3 Xrotation Yrotation Zrotation
												End Site
												{
													OFFSET -1.427902 5.233032 0.797164
												}
											}
										}
									}
								}
								JOINT mixamorig:LeftHandRing1
								{
									OFFSET 22.299240 0.021149 -3.964172
									CHANNELS 3 Xrotation Yrotation Zrotation
									JOINT mixamorig:LeftHandRing2
									{
										OFFSET 6.321869 0.000000 0.000000
										CHANNELS 3 Xrotation Yrotation Zrotation
										JOINT mixamorig:LeftHandRing3
										{
											OFFSET 5.899796 0.000000 0.000000
											CHANNELS 3 Xrotation Yrotation Zrotation
											JOINT mixamorig:LeftHandRing4
											{
												OFFSET 6.517899 0.000000 0.000000
												CHANNELS 3 Xrotation Yrotation Zrotation
												End Site
												{
													OFFSET -1.637299 6.232208 0.980890
												}
											}
										}
									}
								}
								JOINT mixamorig:LeftHandPinky1
								{
									OFFSET 20.463791 -0.302338 -8.562233
									CHANNELS 3 Xrotation Yrotation Zrotation
									JOINT mixamorig:LeftHandPinky2
									{
										OFFSET 6.908646 0.000000 0.000000
										CHANNELS 3 Xrotation Yrotation Zrotation
										JOINT mixamorig:LeftHandPinky3
										{
											OFFSET 4.622849 0.000000 0.000000
											CHANNELS 3 Xrotation Yrotation Zrotation
											JOINT mixamorig:LeftHandPinky4
											{
												OFFSET 5.216080 0.000000 0.000000
												CHANNELS 3 Xrotation Yrotation Zrotation
												End Site
												{
													OFFSET -0.606308 5.116241 0.814926
												}
											}
										}
									}
								}
							}
						}
					}
				}
				JOINT mixamorig:RightShoulder
				{
					OFFSET -12.001300 18.284088 1.348900
					CHANNELS 3 Xrotation Yrotation Zrotation
					JOINT mixamorig:RightArm
					{
						OFFSET -25.308500 -0.751312 -5.164599
						CHANNELS 3 Xrotation Yrotation Zrotation
						JOINT mixamorig:RightForeArm
						{
							OFFSET -54.684429 0.000000 0.000000
							CHANNELS 3 Xrotation Yrotation Zrotation
							JOINT mixamorig:RightHand
							{
								OFFSET -55.150291 0.000000 0.000000
								CHANNELS 3 Xrotation Yrotation Zrotation
								JOINT mixamorig:RightHandMiddle1
								{
									OFFSET -23.317566 0.000000 0.000000
									CHANNELS 3 Xrotation Yrotation Zrotation
									JOINT mixamorig:RightHandMiddle2
									{
										OFFSET -6.378403 0.000000 0.000000
										CHANNELS 3 Xrotation Yrotation Zrotation
										JOINT mixamorig:RightHandMiddle3
										{
											OFFSET -6.148193 0.000000 0.000000
											CHANNELS 3 Xrotation Yrotation Zrotation
											JOINT mixamorig:RightHandMiddle4
											{
												OFFSET -6.583389 0.000000 0.000000
												CHANNELS 3 Xrotation Yrotation Zrotation
												End Site
												{
													OFFSET 1.171692 6.395905 1.029786
												}
											}
										}
									}
								}
								JOINT mixamorig:RightHandThumb1
								{
									OFFSET -7.190521 -3.860474 5.435846
									CHANNELS 3 Xrotation Yrotation Zrotation
									JOINT mixamorig:RightHandThumb2
									{
										OFFSET -6.567429 -3.791718 3.791708
										CHANNELS 3 Xrotation Yrotation Zrotation
										JOINT mixamorig:RightHandThumb3
										{
											OFFSET -6.062469 -3.500153 3.500166
											CHANNELS 3 Xrotation Yrotation Zrotation
											JOINT mixamorig:RightHandThumb4
											{
												OFFSET -4.792618 -2.767029 2.767022
												CHANNELS 3 Xrotation Yrotation Zrotation
												End Site
												{
													OFFSET -0.100327 6.053253 1.276754
												}
											}
										}
									}
								}
								JOINT mixamorig:RightHandIndex1
								{
									OFFSET -23.048981 -0.310791 4.992554
									CHANNELS 3 Xrotation Yrotation Zrotation
									JOINT mixamorig:RightHandIndex2
									{
										OFFSET -6.227539 0.000000 0.000000
										CHANNELS 3 Xrotation Yrotation Zrotation
										JOINT mixamorig:RightHandIndex3
										{
											OFFSET -6.095047 0.000000 0.000000
											CHANNELS 3 Xrotation Yrotation Zrotation
											JOINT mixamorig:RightHandIndex4
											{
												OFFSET -5.484772 0.000000 0.000000
												CHANNELS 3 Xrotation Yrotation Zrotation
												End Site
												{
													OFFSET 1.420593 5.237305 0.797056
												}
											}
										}
									}
								}
								JOINT mixamorig:RightHandRing1
								{
									OFFSET -22.246323 0.020569 -3.963762
									CHANNELS 3 Xrotation Yrotation Zrotation
									JOINT mixamorig:RightHandRing2
									{
										OFFSET -6.322128 0.000000 0.000000
										CHANNELS 3 Xrotation Yrotation Zrotation
										JOINT mixamorig:RightHandRing3
										{
											OFFSET -5.900024 0.000000 0.000000
											CHANNELS 3 Xrotation Yrotation Zrotation
											JOINT mixamorig:RightHandRing4
											{
												OFFSET -6.518356 0.000000 0.000000
												CHANNELS 3 Xrotation Yrotation Zrotation
												End Site
												{
													OFFSET 1.636398 6.232697 0.982186
												}
											}
										}
									}
								}
								JOINT mixamorig:RightHandPinky1
								{
									OFFSET -20.411011 -0.303314 -8.561701
									CHANNELS 3 Xrotation Yrotation Zrotation
									JOINT mixamorig:RightHandPinky2
									{
										OFFSET -6.907349 0.000000 0.000000
										CHANNELS 3 Xrotation Yrotation Zrotation
										JOINT mixamorig:RightHandPinky3
										{
											OFFSET -4.623840 0.000000 0.000000
											CHANNELS 3 Xrotation Yrotation Zrotation
											JOINT mixamorig:RightHandPinky4
											{
												OFFSET -5.218353 0.000000 0.000000
												CHANNELS 3 Xrotation Yrotation Zrotation
												End Site
												{
													OFFSET 0.602097 5.118835 0.816273
												}
											}
										}
									}
								}
							}
						}
					}
				}
			}
		}
	}
	JOINT mixamorig:LeftUpLeg
	{
		OFFSET 18.168400 -13.561905 -0.039000
		CHANNELS 3 Xrotation Yrotation Zrotation
		JOINT mixamorig:LeftLeg
		{
			OFFSET 0.577358 -80.825211 -3.695000
			CHANNELS 3 Xrotation Yrotation Zrotation
			JOINT mixamorig:LeftFoot
			{
				OFFSET -0.577356 -83.370262 -6.520700
				CHANNELS 3 Xrotation Yrotation Zrotation
				JOINT mixamorig:LeftToeBase
				{
					OFFSET 0.750401 -20.798306 25.135401
					CHANNELS 3 Xrotation Yrotation Zrotation
					JOINT mixamorig:LeftToe_End
					{
						OFFSET -0.000500 0.001200 19.917799
						CHANNELS 3 Xrotation Yrotation Zrotation
						End Site
						{
							OFFSET 0.000000 19.917805 0.000000
						}
					}
				}
			}
		}
	}
	JOINT mixamorig:RightUpLeg
	{
		OFFSET -18.162500 -13.585098 -0.041000
		CHANNELS 3 Xrotation Yrotation Zrotation
		JOINT mixamorig:RightLeg
		{
			OFFSET -0.595024 -80.945297 -3.631900
			CHANNELS 3 Xrotation Yrotation Zrotation
			JOINT mixamorig:RightFoot
			{
				OFFSET 0.595024 -83.218193 -6.561200
				CHANNELS 3 Xrotation Yrotation Zrotation
				JOINT mixamorig:RightToeBase
				{
					OFFSET -0.753601 -20.807106 25.115000
					CHANNELS 3 Xrotation Yrotation Zrotation
					JOINT mixamorig:RightToe_End
					{
						OFFSET 0.000299 0.001700 19.918200
						CHANNELS 3 Xrotation Yrotation Zrotation
						End Site
						{
							OFFSET 0.000000 19.918203 0.000000
						}
					}
				}
			}
		}
	}
}
MOTION
Frames: 4
Frame Time: 0.033333
-3.556519 184.450500 0.073394 51.336187 -70.841226 52.595687 7.800601 3.226933 4.238799 12.707904 6.406376 6.655396 12.728348 6.436542 6.586122 3.385422 -0.460127 2.258547 8.874420 1.648279 -4.487673 -0.000000 0.000000 0.000001 -0.000000 0.000000 0.000001 -0.000000 0.000000 0.000001 0.608288 -2.105588 -11.581398 -46.459148 -29.078817 -92.550709 0.000003 -20.859007 -0.000002 -20.416204 18.957784 30.637910 6.341370 9.458910 -58.484294 6.990970 5.739311 -101.253333 6.566584 5.807289 -97.036286 -0.000000 0.000000 0.000000 55.682653 -2.117510 45.305550 81.950331 -1.423241 50.782429 -10.247782 17.984629 1.554702 0.000001 0.000001 0.000001 0.230316 3.926604 -22.478586 5.723151 5.849656 -88.745304 5.723173 5.849670 -88.745283 -0.000000 0.000000 -0.000000 7.415895 8.807745 -74.918023 5.953049 5.850182 -91.000420 6.157380 5.843049 -93.006221 -0.000000 -0.000000 -0.000003 20.711396 9.388319 -85.840718 5.062046 5.797807 -82.236639 4.939062 5.779816 -81.017457 -0.000001 -0.000002 0.000001 -0.784360 15.466924 22.252698 -56.162877 25.008341 77.070933 -0.000000 0.015616 -0.000005 -12.877758 -7.607194 2.872479 6.189299 -11.029354 41.067124 5.549113 -4.571160 101.053243 5.225931 -4.622389 97.022646 0.000001 0.000000 -0.000000 -0.787139 13.150268 -22.268109 11.690793 -49.505641 19.340340 2.734730 -6.739208 -25.279058 0.000001 -0.000001 0.000002 -2.857587 -16.672244 -11.849139 4.400779 -4.650097 86.840999 4.400799 -4.650130 86.841122 -0.000002 -0.000001 -0.000001 -0.865227 -4.640760 62.576329 4.860691 -4.652751 92.507536 5.023277 -4.642757 94.514054 -0.000001 -0.000001 0.000001 -13.667264 -1.460354 72.993159 3.233226 -4.434603 72.178140 3.235048 -4.435180 72.201773 -0.000001 -0.000000 0.000002 -52.930650 2.268907 -2.606540 45.250949 -9.819192 1.514360 -8.916790 -0.402169 -0.046312 -0.379283 1.642699 -1.202612 0.000000 0.000000 0.000000 -47.070826 -3.912064 -17.911181 46.048698 -5.624181 -2.304787 -12.137233 -2.082817 13.875651 -1.799728 -0.000020 0.000001 0.000000 -0.000001 -0.000000 
-3.574608 184.501282 0.307487 51.190454 -70.802820 52.424113 7.802923 3.211069 4.217258 12.734711 6.382433 6.620584 12.753685 6.413130 6.553438 3.323820 -0.449307 2.118601 8.568394 2.100359 -4.603543 0.000001 -0.000001 -0.000001 0.000001 -0.000001 -0.000001 0.000001 -0.000001 -0.000001 0.607732 -2.121751 -11.501778 -46.348772 -29.026224 -92.588733 -0.000004 -20.910908 0.000003 -20.414887 18.980119 30.448191 6.307987 9.452190 -58.319099 6.990956 5.739317 -101.253354 6.566587 5.807302 -97.036279 0.000001 0.000002 0.000002 55.053411 -2.001785 45.179809 85.655306 -1.068731 52.951567 -10.366745 17.090014 1.640432 -0.000002 0.000002 0.000000 0.253188 3.979750 -22.408333 5.708858 5.849338 -88.604930 5.708868 5.849343 -88.604916 0.000000 -0.000001 -0.000001 7.400234 8.811314 -74.778940 5.946051 5.850303 -90.931620 6.150359 5.843399 -92.937476 -0.000002 0.000001 0.000001 20.608663 9.441476 -85.609857 5.043206 5.795202 -82.050147 4.921905 5.777084 -80.847064 -0.000001 0.000001 0.000001 -0.771694 15.442474 22.219744 -54.175568 25.033938 76.267757 -0.000001 3.450909 0.000003 -13.186364 -9.532930 2.438388 6.223073 -11.065515 41.078936 5.549106 -4.571155 101.053243 5.225946 -4.622377 97.022639 0.000000 0.000001 0.000001 -0.811515 13.198131 -22.276932 11.835188 -49.570159 19.494968 2.713439 -6.643951 -25.382928 -0.000002 0.000001 0.000001 -2.834067 -16.711509 -11.736770 4.407164 -4.650445 86.920038 4.407219 -4.650493 86.920195 -0.000002 0.000002 -0.000003 -0.885581 -4.633941 62.624659 4.855923 -4.652946 92.448571 5.018493 -4.643135 94.455089 0.000000 0.000002 -0.000001 -13.660884 -1.426073 72.885324 3.226684 -4.432511 72.093760 3.228510 -4.433082 72.117399 0.000000 -0.000000 0.000001 -52.873095 2.228645 -2.688045 45.181394 -9.675766 1.497138 -8.874539 -0.413753 0.006963 -0.366039 1.568034 -1.148002 0.000000 -0.000000 0.000000 -46.953739 -3.934755 -18.004375 45.891997 -5.566125 -2.253741 -12.066459 -2.145882 13.918219 -1.783691 -0.000018 0.000002 -0.000000 -0.000001 -0.000000 
-3.567589 184.541306 0.553039 51.072138 -70.749353 52.288052 7.804697 3.205046 4.189968 12.761461 6.360634 6.585528 12.782057 6.390448 6.516436 3.261842 -0.433256 1.978202 8.264424 2.555794 -4.677148 0.000000 0.000000 -0.000000 0.000000 0.000000 -0.000000 0.000000 0.000000 -0.000000 0.622102 -2.152982 -11.444263 -46.248976 -29.013558 -92.576780 -0.000001 -20.995865 0.000008 -20.466442 18.967196 30.424302 6.274766 9.445377 -58.153945 6.990962 5.739322 -101.253340 6.566566 5.807304 -97.036279 -0.000002 -0.000000 0.000002 54.428405 -1.882545 45.068163 88.683422 0.391215 55.479072 -10.482699 16.194553 1.726283 0.000001 0.000001 0.000000 0.275993 4.033103 -22.338219 5.694561 5.848962 -88.464487 5.694561 5.848965 -88.464453 -0.000001 -0.000001 0.000004 7.384566 8.814847 -74.639843 5.939037 5.850416 -90.862833 6.143374 5.843764 -92.868757 -0.000001 0.000000 -0.000001 20.505474 9.493866 -85.378949 5.024380 5.792561 -81.863690 4.904758 5.774306 -80.676692 0.000000 0.000001 -0.000000 -0.770528 15.402020 22.186655 -52.826934 25.199986 75.725378 0.000013 5.532893 -0.000008 -14.100296 -10.260839 2.369778 6.259090 -11.089146 41.165506 5.549103 -4.571155 101.053223 5.225960 -4.622385 97.022646 0.000001 -0.000001 0.000000 -0.842405 13.224649 -22.291480 12.053638 -49.666192 19.723276 2.682977 -6.520948 -25.534189 0.000000 0.000002 -0.000001 -2.776871 -16.762983 -11.493057 4.406744 -4.650431 86.914342 4.406764 -4.650437 86.914492 0.000002 -0.000000 -0.000001 -0.910470 -4.628368 62.719578 4.853439 -4.653062 92.417862 5.016021 -4.643325 94.424401 -0.000000 0.000002 0.000000 -13.699723 -1.407211 72.867299 3.220152 -4.430395 72.008881 3.221974 -4.430969 72.032766 0.000000 0.000000 0.000001 -52.843784 2.256520 -2.779977 45.133846 -9.670873 1.511054 -8.843625 -0.428718 0.078528 -0.307517 1.694440 -1.263368 0.000000 0.000000 0.000000 -46.859940 -3.914109 -18.106242 45.747483 -5.531391 -2.185517 -11.988122 -2.211052 13.967787 -1.766014 -0.000018 -0.000002 -0.000000 -0.000001 0.000000 
-3.536007 184.568985 0.818504 50.950018 -70.682124 52.149464 7.803572 3.194268 4.164178 12.781137 6.342122 6.541849 12.800693 6.371286 6.475309 3.199632 -0.415970 1.840733 7.937526 3.014456 -4.718351 -0.000000 0.000000 0.000001 -0.000000 0.000000 0.000001 -0.000000 0.000000 0.000001 0.617843 -2.182631 -11.388335 -46.114927 -29.034291 -92.541748 0.000001 -21.111734 -0.000006 -20.581815 18.920522 30.527134 6.241680 9.438492 -57.988805 6.990264 5.739458 -101.246250 6.566587 5.807298 -97.036258 -0.000002 0.000001 0.000001 53.807629 -1.759841 44.970502 91.623190 1.859528 58.059381 -10.595616 15.298300 1.812323 0.000001 0.000001 0.000000 0.298702 4.086657 -22.268245 5.680228 5.848554 -88.323949 5.680223 5.848575 -88.323922 -0.000001 -0.000000 0.000003 7.365744 8.817475 -74.500637 5.932027 5.850516 -90.794060 6.136379 5.844103 -92.800039 -0.000000 0.000001 -0.000000 20.401855 9.545510 -85.147939 5.005573 5.789878 -81.677294 4.887648 5.771493 -80.506354 -0.000001 0.000000 -0.000001 -0.768002 15.352011 22.171650 -51.911558 25.479592 75.377114 0.000006 6.967193 0.000015 -14.396939 -11.074545 2.031887 6.331170 -11.174305 41.149578 5.551318 -4.570739 101.080857 5.225939 -4.622368 97.022653 0.000000 0.000001 0.000002 -0.900893 13.338611 -22.302938 12.378373 -49.814578 20.073982 2.642716 -6.374827 -25.738519 -0.000001 -0.000000 0.000001 -2.712417 -16.819621 -11.220460 4.405075 -4.650327 86.893796 4.405098 -4.650347 86.893953 0.000002 0.000002 -0.000002 -0.950859 -4.616240 62.830869 4.845214 -4.653390 92.316618 5.007835 -4.643951 94.323082 -0.000001 -0.000001 -0.000002 -13.716357 -1.342868 72.693662 3.213200 -4.428142 71.919105 3.215046 -4.428732 71.943072 0.000000 0.000000 0.000001 -52.842841 2.214619 -2.892248 45.085980 -9.549122 1.483737 -8.808285 -0.441862 0.143299 -0.285290 1.699292 -1.273454 -0.000000 0.000000 0.000000 -46.792977 -3.905037 -18.220713 45.610265 -5.489981 -2.134956 -11.903274 -2.275482 14.030115 -1.754197 -0.000015 -0.000002 -0.000000 0.000001 -0.000000 
